<svg xmlns="http://www.w3.org/2000/svg" viewBox="0 0 143.849 29.029" height="109.714" width="543.679">
  <g font-family="Exo" word-spacing="0">
    <g style="line-height:125%;-inkscape-font-specification:'Exo Bold Italic'" aria-label="NEIL Hosting" font-style="italic" font-weight="700" font-size="26.719" letter-spacing="-1.289" stroke-width=".668">
      <path style="-inkscape-font-specification:'Exo Bold Italic'" d="M3.422.4h3.18L12.8 13.44 14.885.4h3.954l-3.153 19.773h-3.153L6.335 7.107 4.25 20.173H.296zM22.343 20.333q-1.71 0-2.966-.748-1.256-.748-1.256-2.726 0-.48.08-.988l1.737-10.928Q20.633.4 25.228.4q3.554 0 8.07.347l-.535 3.313h-6.974q-.935 0-1.416.454-.48.455-.64 1.417l-.402 2.565 7.401.24-.507 3.126-7.455.214-.427 2.752q-.054.374-.054.507 0 .695.401.989.4.294 1.23.294h6.866l-.508 3.313q-5.023.374-7.935.4zM35.235.4h3.954l-3.126 19.773H32.11zM42.67 20.173q-1.87 0-2.913-.882-1.015-.882-1.015-2.699 0-.588.08-1.229L41.2.401h3.955l-2.272 14.455q-.053.187-.053.507 0 .668.374.962.4.294 1.176.294h6.252l-.588 3.554zM59.393.4h3.954l-1.31 8.23h7.455L70.802.4h3.954L71.63 20.174h-3.955l1.256-7.99h-7.454l-1.256 7.99h-3.954zM79.436 20.333q-5.637 0-5.637-4.997 0-1.362.214-2.725.454-2.832 1.362-4.328.909-1.496 2.405-2.058 1.496-.56 3.954-.56 2.245 0 3.447.56 1.229.562 1.71 1.684.48 1.122.48 2.992 0 1.31-.24 2.886-.4 2.591-1.336 4.008-.908 1.416-2.431 1.977-1.496.56-3.928.56zm.428-3.18q1.069 0 1.683-.32.615-.32.989-1.15.374-.827.641-2.484.24-1.817.24-2.485 0-1.069-.507-1.496-.481-.454-1.683-.454-1.096 0-1.71.374-.615.347-.989 1.282t-.641 2.779q-.16 1.149-.16 1.95 0 1.15.507 1.577.534.427 1.63.427zM92.956 20.333q-3.58 0-5.718-.641l.374-2.325h6.252q1.496 0 1.684-1.042l.08-.588.026-.32q0-.802-1.122-.802h-2.137q-1.87 0-2.993-.721-1.095-.722-1.095-2.191 0-.642.107-1.203l.16-1.015q.32-1.817 1.657-2.805 1.362-1.016 4.248-1.016 1.256 0 2.832.187 1.603.187 2.645.481l-.4 2.325h-5.852q-.775 0-1.122.267-.348.24-.481.828l-.08.401q-.08.347-.08.561 0 .374.267.561.294.16.962.16h2.404q1.71 0 2.725.775 1.042.749 1.042 2.084 0 .535-.08 1.15l-.187 1.255q-.294 1.924-1.843 2.779-1.55.855-4.275.855zM105.74 20.173q-2.164 0-3.26-.802-1.068-.802-1.068-2.458 0-1.176.24-2.485l.99-5.424h-2.219l.401-2.538 2.458-.641 1.176-4.008h3.126l-.641 4.008h3.366l-.48 3.18h-3.394l-.855 5.45q-.027.107-.107.588-.08.454-.08.774 0 .615.32.909.321.294 1.043.347l1.63.16-.481 2.94zM112.366 3.714q-.24 0-.374-.134-.134-.16-.08-.4l.4-2.619q.08-.561.642-.561H116q.48 0 .427.561l-.4 2.619q-.134.534-.615.534zm-.828 2.11h3.954l-2.244 14.349h-3.981zM117.033 5.825h3.287l.454 1.47q2.218-1.657 4.943-1.657 1.737 0 2.672.908.962.882.962 2.325 0 1.015-.321 2.965l-1.31 8.337h-3.954l1.283-8.203q.16-1.122.16-1.256 0-1.523-1.737-1.523-.881 0-1.656.32-.748.295-1.523.883l-1.55 9.779h-3.954zM128.78 26.157l.427-2.725h4.515q1.683 0 2.672-.534.989-.508 1.176-1.79l.4-2.378q-.828.668-2.084 1.149-1.255.454-2.35.454-1.791 0-2.78-1.39-.961-1.416-.961-3.526 0-1.203.32-3.34.561-3.474 2.512-4.943 1.95-1.47 4.996-1.47 1.844 0 3.447.268 1.63.24 2.778.614l-2.404 15.176q-.401 2.485-2.191 3.607-1.764 1.15-4.97 1.15-.908 0-1.95-.081zm6.759-9.004q1.31 0 2.805-.988l1.15-7.134q-1.23-.187-2.111-.187-1.363 0-2.218.882-.855.881-1.176 2.805-.24 1.416-.24 2.218 0 1.202.454 1.817.481.587 1.336.587z"/>
    </g>
    <g style="line-height:125%;-inkscape-font-specification:Exo" aria-label="Web hosting for larp conventions" font-weight="400" font-size="7.229" letter-spacing="0" stroke-width=".181">
      <path style="-inkscape-font-specification:Exo" d="M0 21.937h.593l1.142 4.533 1.315-4.533h.579l1.308 4.533 1.142-4.533h.593l-1.366 5.32h-.622L3.34 22.74l-1.352 4.518h-.622zM8.654 27.301q-.622 0-.969-.18-.34-.181-.491-.608-.152-.426-.152-1.193 0-.773.152-1.2.159-.426.506-.6.347-.173.961-.173.528 0 .846.116.318.115.47.397.151.275.151.766 0 .492-.289.716-.282.217-.81.217H7.614q.007.499.101.773.094.268.347.398.253.123.73.123h1.243v.347q-.39.05-.694.072-.303.029-.686.029zm.325-2.118q.333 0 .484-.123.152-.123.152-.426 0-.485-.217-.665-.21-.188-.737-.188-.42 0-.643.123-.224.122-.318.419-.094.296-.094.86zM12.948 27.301q-.665 0-1.287-.434l-.108.39h-.463v-5.515h.57v2.01q.305-.174.644-.29.347-.115.622-.115.708 0 1.04.463.34.462.34 1.546 0 1.945-1.358 1.945zm-.181-.477q.477 0 .723-.369.246-.376.246-1.12 0-.607-.123-.933-.116-.332-.326-.455-.21-.123-.52-.123-.304 0-.557.08-.253.08-.55.245v2.364q.268.145.529.231.267.08.578.08zM17.217 21.742h.571v2.082q.297-.21.665-.347.376-.144.752-.144.586 0 .882.36.304.362.304.933v2.632h-.572V24.69q0-.368-.216-.6-.217-.238-.586-.238-.347 0-.622.094-.267.087-.607.282v3.029h-.57zM23 27.301q-.594 0-.955-.166-.361-.167-.542-.593-.174-.434-.174-1.222 0-.795.181-1.221.18-.434.535-.593.354-.159.954-.159.593 0 .954.166.362.16.543.593.18.426.18 1.214t-.18 1.222q-.181.426-.543.593-.354.166-.954.166zm0-.47q.397 0 .62-.101.232-.109.355-.434.123-.325.123-.976 0-.65-.123-.968-.116-.326-.347-.427-.231-.108-.629-.108-.405 0-.636.108-.224.101-.347.427-.116.318-.116.968 0 .65.116.976.123.325.347.434.231.101.636.101zM26.962 27.301q-.326 0-.817-.029-.492-.029-.672-.072v-.347h1.583q.404 0 .592-.109.188-.108.188-.455v-.174q0-.542-.7-.542h-.543q-.557 0-.86-.217-.297-.216-.297-.737v-.202q0-.55.319-.803.325-.253 1.04-.253.311 0 .73.037.427.028.666.072v.347H26.7q-.39 0-.578.13-.188.13-.188.47v.159q0 .31.18.419.189.101.572.101h.55q.527 0 .816.246.29.246.29.708v.268q0 .55-.355.766-.354.217-1.026.217zM30.525 27.258q-.57 0-.838-.29-.268-.296-.253-.96l.022-2.14h-.615v-.37l.622-.1.094-1.077h.44v1.077h1.114v.47h-1.113v2.14q0 .44.166.606.166.16.42.181l.469.043v.42zM31.987 22.71q-.05 0-.087-.028-.029-.036-.029-.087v-.564q0-.115.116-.115h.405q.108 0 .108.115v.564q0 .116-.108.116zm-.087.688h.571v3.86h-.57zM33.566 23.398h.448l.123.426q.304-.21.672-.347.369-.144.738-.144.6 0 .896.368.296.369.296.933v2.624h-.57v-2.56q0-.375-.218-.606-.21-.239-.585-.239-.347 0-.622.094-.267.087-.607.282v3.029h-.57zM41.264 23.716l-.868.072q.145.094.239.195.101.094.173.296.08.196.08.5 0 .505-.326.838-.325.332-1.04.332h-.615q-.325 0-.491.094-.167.094-.167.318 0 .16.116.239.123.08.29.08h1.279q.672 0 .997.26.333.26.333.802v.159q0 .535-.369.831-.361.297-1.055.297h-1.077q-.586 0-.933-.246-.34-.239-.34-.709v-.173q0-.318.174-.542.173-.224.455-.347-.18-.087-.274-.231-.094-.152-.094-.34 0-.55.65-.687-.376-.152-.535-.448-.152-.304-.152-.672 0-1.244 1.49-1.244h2.06zm-1.8 1.792q.506 0 .7-.217.203-.216.203-.578 0-.874-.838-.874h-.412q-.434 0-.658.195-.224.188-.224.629 0 .845.795.845zm-.6 1.62q-.347 0-.593.166-.239.173-.239.513v.159q0 .643.86.643h.897q.448 0 .687-.173.246-.166.246-.513v-.145q0-.31-.196-.484-.195-.167-.665-.167zM44.138 23.867h-.592V23.5l.592-.101v-.441q0-.644.246-.947.253-.311.86-.311.37 0 .745.072v.405h-.643q-.369 0-.506.18-.13.174-.13.572v.47h1.2v.47h-1.2v3.39h-.572zM48.115 27.301q-.592 0-.954-.166-.361-.167-.542-.593-.173-.434-.173-1.222 0-.795.18-1.221.181-.434.535-.593.355-.159.954-.159.593 0 .955.166.361.16.542.593.18.426.18 1.214t-.18 1.222q-.18.426-.542.593-.355.166-.955.166zm0-.47q.398 0 .622-.101.231-.109.354-.434.123-.325.123-.976 0-.65-.123-.968-.115-.326-.347-.427-.231-.108-.629-.108-.404 0-.636.108-.224.101-.347.427-.115.318-.115.968 0 .65.115.976.123.325.347.434.232.101.636.101zM50.748 23.398h.434l.137.672q.282-.34.607-.528t.716-.188q.195 0 .361.036v.586q-.325-.036-.42-.036-.382 0-.664.137-.275.137-.6.441v2.74h-.571zM56.687 27.265q-.513 0-.766-.282-.246-.282-.246-.961v-4.28h.571v4.207q0 .477.13.65.13.174.412.21l.39.044v.412zM58.559 27.301q-.434 0-.709-.26-.267-.26-.267-.709v-.274q0-.47.304-.745.31-.275.903-.275h1.308v-.477q0-.39-.216-.578-.21-.188-.781-.188h-1.2v-.34q.68-.115 1.41-.115.7 0 1.026.289.332.282.332.903v2.726h-.44l-.109-.441q-.05.043-.318.166-.26.123-.6.224-.34.094-.643.094zm.253-.427q.195 0 .477-.072t.506-.152q.231-.08.303-.108v-1.214l-1.178.05q-.397.015-.585.195-.181.181-.181.492v.173q0 .333.188.485.195.151.47.151zM61.746 23.398h.434l.137.672q.282-.34.607-.528.326-.188.716-.188.195 0 .361.036v.586q-.325-.036-.419-.036-.383 0-.665.137-.275.137-.6.441v2.74h-.571zM64.725 23.398h.463l.108.397q.231-.166.585-.303.355-.145.68-.145.708 0 1.04.557.34.556.34 1.416 0 .99-.34 1.49-.332.498-1.04.498-.31 0-.643-.101-.326-.101-.622-.267v2.03h-.571zm1.677 3.426q.969 0 .969-1.504 0-.759-.275-1.127-.275-.369-.694-.369-.304 0-.571.094-.268.087-.535.231v2.364q.55.31 1.106.31zM72.255 27.301q-.738 0-1.143-.427-.397-.433-.397-1.54 0-.773.18-1.206.189-.434.528-.6.34-.174.846-.174.694 0 1.28.101v.34H72.42q-.398 0-.644.13-.238.13-.368.47-.123.333-.123.954 0 .593.13.926.137.325.383.455.246.123.629.123h1.178v.332q-.68.116-1.351.116zM75.928 27.301q-.592 0-.954-.166-.361-.167-.542-.593-.173-.434-.173-1.222 0-.795.18-1.221.181-.434.535-.593.354-.159.954-.159.593 0 .954.166.362.16.543.593.18.426.18 1.214t-.18 1.222q-.181.426-.543.593-.354.166-.954.166zm0-.47q.398 0 .622-.101.231-.109.354-.434.123-.325.123-.976 0-.65-.123-.968-.115-.326-.347-.427-.231-.108-.629-.108-.404 0-.636.108-.224.101-.347.427-.115.318-.115.968 0 .65.115.976.123.325.347.434.232.101.636.101zM78.56 23.398h.449l.123.426q.303-.21.672-.347.369-.144.737-.144.6 0 .897.368.296.369.296.933v2.624h-.571v-2.56q0-.375-.217-.606-.21-.239-.585-.239-.347 0-.622.094-.267.087-.607.282v3.029h-.571zM82.398 23.398h.586l1.2 3.325 1.236-3.325h.578l-1.496 3.86h-.65zM88.012 27.301q-.622 0-.968-.18-.34-.181-.492-.608-.152-.426-.152-1.193 0-.773.152-1.2.159-.426.506-.6.347-.173.961-.173.528 0 .846.116.318.115.47.397.152.275.152.766 0 .492-.29.716-.281.217-.809.217h-1.417q.007.499.101.773.094.268.347.398.253.123.73.123h1.244v.347q-.39.05-.694.072-.304.029-.687.029zm.325-2.118q.333 0 .485-.123.152-.123.152-.426 0-.485-.217-.665-.21-.188-.738-.188-.419 0-.643.123-.224.122-.318.419-.094.296-.094.86zM90.448 23.398h.448l.123.426q.304-.21.673-.347.368-.144.737-.144.6 0 .896.368.297.369.297.933v2.624h-.571v-2.56q0-.375-.217-.606-.21-.239-.586-.239-.347 0-.621.094-.268.087-.608.282v3.029h-.57zM95.977 27.258q-.57 0-.838-.29-.268-.296-.253-.96l.021-2.14h-.614v-.37l.622-.1.094-1.077h.44v1.077h1.114v.47H95.45v2.14q0 .44.166.606.166.16.42.181l.469.043v.42zM97.439 22.71q-.05 0-.087-.028-.029-.036-.029-.087v-.564q0-.115.116-.115h.405q.108 0 .108.115v.564q0 .116-.108.116zm-.087.688h.571v3.86h-.57zM100.55 27.301q-.592 0-.954-.166-.361-.167-.542-.593-.173-.434-.173-1.222 0-.795.18-1.221.181-.434.535-.593.354-.159.954-.159.593 0 .955.166.361.16.542.593.18.426.18 1.214t-.18 1.222q-.181.426-.542.593-.355.166-.955.166zm0-.47q.398 0 .622-.101.231-.109.354-.434.123-.325.123-.976 0-.65-.123-.968-.115-.326-.347-.427-.231-.108-.629-.108-.404 0-.636.108-.224.101-.347.427-.115.318-.115.968 0 .65.115.976.123.325.347.434.232.101.636.101zM103.183 23.398h.448l.123.426q.304-.21.672-.347.369-.144.737-.144.6 0 .897.368.296.369.296.933v2.624h-.57v-2.56q0-.375-.218-.606-.21-.239-.585-.239-.347 0-.622.094-.267.087-.607.282v3.029h-.571zM108.762 27.301q-.325 0-.816-.029-.492-.029-.673-.072v-.347h1.583q.405 0 .593-.109.188-.108.188-.455v-.174q0-.542-.701-.542h-.542q-.557 0-.86-.217-.297-.216-.297-.737v-.202q0-.55.318-.803.326-.253 1.041-.253.311 0 .73.037.427.028.665.072v.347h-1.489q-.39 0-.578.13-.188.13-.188.47v.159q0 .31.18.419.189.101.572.101h.55q.527 0 .816.246.29.246.29.708v.268q0 .55-.355.766-.354.217-1.027.217z"/>
    </g>
  </g>
</svg>